<svg width="22" height="24" viewBox="0 0 22 24" fill="none" xmlns="http://www.w3.org/2000/svg">
<path d="M2.37651 19.3126H13.3341C13.258 20.7816 12.3113 21.7176 11.0057 21.7176C9.68901 21.7176 8.753 20.7816 8.66572 19.3126H6.96829C7.05558 21.4019 8.69868 23.2405 11.0057 23.2405C13.3016 23.2405 14.9447 21.4019 15.032 19.3126H19.6238C20.6578 19.3126 21.2674 18.7796 21.2674 17.9959C21.2674 16.9076 20.1679 15.9284 19.2213 14.9599C18.503 14.2092 18.3071 12.664 18.2309 11.4128C18.1441 7.1251 17.0451 4.35006 14.1396 3.30542C13.7803 1.89121 12.6052 0.759277 11.0057 0.759277C9.39465 0.759277 8.23068 1.89121 7.86065 3.30542C4.96629 4.35006 3.85618 7.1251 3.78004 11.4123C3.69322 12.664 3.50797 14.2092 2.77904 14.9599C1.84304 15.9284 0.733398 16.9076 0.733398 17.9963C0.733398 18.7796 1.35368 19.3126 2.37651 19.3126ZM2.85518 17.669V17.539C3.05111 17.2126 3.69322 16.5812 4.26986 15.9391C5.04243 15.0686 5.41201 13.6757 5.51043 11.5432C5.59726 6.79824 7.01193 5.27538 8.88347 4.77488C9.15554 4.70942 9.29715 4.56781 9.30783 4.29574C9.35147 3.1536 9.99358 2.35874 11.0057 2.35874C12.0067 2.35874 12.6595 3.15313 12.6925 4.29574C12.7031 4.56781 12.8554 4.70896 13.1275 4.77442C14.9884 5.27538 16.403 6.79871 16.501 11.5432C16.5878 13.6757 16.9579 15.0686 17.7416 15.9391C18.3071 16.5812 18.9599 17.2126 19.1558 17.539V17.669H2.85518Z" fill="#191A1C"/>
</svg>
