<svg width="21" height="21" viewBox="0 0 21 21" fill="none" xmlns="http://www.w3.org/2000/svg">
<path d="M18.4404 11.0403V9.89277L19.8804 8.63277C20.1458 8.39881 20.32 8.07854 20.3722 7.72858C20.4243 7.37861 20.3511 7.02147 20.1654 6.72027L18.3954 3.72028C18.2639 3.49247 18.0747 3.30326 17.847 3.17162C17.6193 3.03998 17.3609 2.97055 17.0979 2.97028C16.9349 2.96903 16.7727 2.99436 16.6179 3.04528L14.7954 3.66028C14.4811 3.4505 14.1529 3.26256 13.8129 3.09778L13.4304 1.20778C13.3618 0.862479 13.1739 0.552306 12.8997 0.331552C12.6255 0.110799 12.2824 -0.00646964 11.9304 0.000275573H8.42038C8.0684 -0.00646964 7.72526 0.110799 7.45103 0.331552C7.17681 0.552306 6.98896 0.862479 6.92038 1.20778L6.53788 3.09778C6.19585 3.26326 5.86513 3.45117 5.54788 3.66028L3.76287 3.01528C3.60635 2.97449 3.44425 2.9593 3.28288 2.97028C3.01983 2.97055 2.76148 3.03998 2.53375 3.17162C2.30601 3.30326 2.1169 3.49247 1.98537 3.72028L0.215375 6.72027C0.0403152 7.02102 -0.0247363 7.37327 0.0313619 7.7167C0.0874601 8.06013 0.261217 8.37337 0.522875 8.60277L1.94037 9.90027V11.0478L0.522875 12.3078C0.253826 12.5388 0.0753165 12.8576 0.0190239 13.2077C-0.0372687 13.5578 0.0322968 13.9166 0.215375 14.2203L1.98537 17.2203C2.1169 17.4481 2.30601 17.6373 2.53375 17.7689C2.76148 17.9006 3.01983 17.97 3.28288 17.9703C3.44589 17.9715 3.60801 17.9462 3.76287 17.8953L5.58537 17.2803C5.89961 17.4901 6.22788 17.678 6.56788 17.8428L6.95038 19.7328C7.01896 20.0781 7.20681 20.3882 7.48103 20.609C7.75526 20.8298 8.0984 20.947 8.45038 20.9403H11.9904C12.3424 20.947 12.6855 20.8298 12.9597 20.609C13.2339 20.3882 13.4218 20.0781 13.4904 19.7328L13.8729 17.8428C14.2149 17.6773 14.5456 17.4894 14.8629 17.2803L16.6779 17.8953C16.8327 17.9462 16.9949 17.9715 17.1579 17.9703C17.4209 17.97 17.6793 17.9006 17.907 17.7689C18.1347 17.6373 18.3239 17.4481 18.4554 17.2203L20.1654 14.2203C20.3404 13.9195 20.4055 13.5673 20.3494 13.2239C20.2933 12.8804 20.1195 12.5672 19.8579 12.3378L18.4404 11.0403ZM17.0979 16.4703L14.5254 15.6003C13.9228 16.1098 13.2347 16.5085 12.4929 16.7778L11.9604 19.4703H8.42038L7.88788 16.8078C7.15194 16.5309 6.46749 16.133 5.86287 15.6303L3.28288 16.4703L1.51287 13.4703L3.55288 11.6703C3.4142 10.8939 3.4142 10.0991 3.55288 9.32277L1.51287 7.47027L3.28288 4.47028L5.85538 5.34028C6.45795 4.83072 7.1461 4.43205 7.88788 4.16278L8.42038 1.47028H11.9604L12.4929 4.13278C13.2288 4.40961 13.9133 4.8076 14.5179 5.31028L17.0979 4.47028L18.8679 7.47027L16.8279 9.27027C16.9666 10.0466 16.9666 10.8414 16.8279 11.6178L18.8679 13.4703L17.0979 16.4703Z" fill="#191A1C"/>
<path d="M10.1904 14.9707C9.30042 14.9707 8.43039 14.7068 7.69037 14.2123C6.95034 13.7179 6.37357 13.015 6.03297 12.1928C5.69238 11.3705 5.60326 10.4657 5.7769 9.5928C5.95053 8.71988 6.37911 7.91806 7.00845 7.28872C7.63779 6.65939 8.43961 6.2308 9.31253 6.05717C10.1854 5.88354 11.0902 5.97265 11.9125 6.31325C12.7348 6.65384 13.4376 7.23062 13.932 7.97064C14.4265 8.71066 14.6904 9.58069 14.6904 10.4707C14.6964 11.0633 14.5842 11.6512 14.3601 12.1999C14.1361 12.7486 13.8049 13.247 13.3858 13.6661C12.9668 14.0852 12.4683 14.4164 11.9196 14.6404C11.3709 14.8644 10.7831 14.9767 10.1904 14.9707ZM10.1904 7.4707C9.79394 7.46147 9.3997 7.53275 9.03154 7.68025C8.66339 7.82774 8.32898 8.04838 8.04855 8.32882C7.76811 8.60926 7.54747 8.94366 7.39997 9.31182C7.25248 9.67997 7.1812 10.0742 7.19043 10.4707C7.1812 10.8672 7.25248 11.2614 7.39997 11.6296C7.54747 11.9977 7.76811 12.3322 8.04855 12.6126C8.32898 12.893 8.66339 13.1137 9.03154 13.2612C9.3997 13.4087 9.79394 13.4799 10.1904 13.4707C10.5869 13.4799 10.9812 13.4087 11.3493 13.2612C11.7175 13.1137 12.0519 12.893 12.3323 12.6126C12.6128 12.3322 12.8334 11.9977 12.9809 11.6296C13.1284 11.2614 13.1997 10.8672 13.1904 10.4707C13.1997 10.0742 13.1284 9.67997 12.9809 9.31182C12.8334 8.94366 12.6128 8.60926 12.3323 8.32882C12.0519 8.04838 11.7175 7.82774 11.3493 7.68025C10.9812 7.53275 10.5869 7.46147 10.1904 7.4707Z" fill="#191A1C"/>
</svg>
