<svg width="28" height="28" viewBox="0 0 28 28" fill="none" xmlns="http://www.w3.org/2000/svg">
<path d="M23.7067 14.6533V13.3381L25.4018 11.894C25.7143 11.6259 25.9193 11.2588 25.9807 10.8577C26.0421 10.4566 25.9559 10.0473 25.7373 9.70212L23.6538 6.26381C23.499 6.00273 23.2763 5.78587 23.0083 5.635C22.7402 5.48413 22.4361 5.40455 22.1264 5.40424C21.9346 5.40281 21.7437 5.43184 21.5614 5.4902L19.4161 6.19505C19.0462 5.95462 18.6598 5.73922 18.2596 5.55037L17.8093 3.38423C17.7286 2.98849 17.5075 2.633 17.1847 2.37999C16.8619 2.12699 16.4579 1.99259 16.0436 2.00032H11.9119C11.4976 1.99259 11.0936 2.12699 10.7708 2.37999C10.448 2.633 10.2269 2.98849 10.1462 3.38423L9.69594 5.55037C9.29332 5.74003 8.90402 5.9554 8.53058 6.19505L6.4294 5.45581C6.24515 5.40907 6.05434 5.39166 5.86438 5.40424C5.55474 5.40455 5.25063 5.48413 4.98255 5.635C4.71448 5.78587 4.49187 6.00273 4.33705 6.26381L2.25352 9.70212C2.04746 10.0468 1.97088 10.4505 2.03692 10.8441C2.10295 11.2377 2.30749 11.5967 2.61549 11.8597L4.28408 13.3467V14.6619L2.61549 16.106C2.29879 16.3707 2.08866 16.7361 2.02239 17.1374C1.95613 17.5387 2.03802 17.9498 2.25352 18.2979L4.33705 21.7362C4.49187 21.9973 4.71448 22.2141 4.98255 22.365C5.25063 22.5159 5.55474 22.5955 5.86438 22.5958C6.05626 22.5972 6.24711 22.5682 6.4294 22.5098L8.57472 21.805C8.94461 22.0454 9.33103 22.2608 9.73125 22.4496L10.1815 24.6158C10.2622 25.0115 10.4834 25.367 10.8062 25.62C11.129 25.873 11.5329 26.0074 11.9472 25.9997H16.1142C16.5286 26.0074 16.9325 25.873 17.2553 25.62C17.5781 25.367 17.7992 25.0115 17.8799 24.6158L18.3302 22.4496C18.7328 22.26 19.1221 22.0446 19.4956 21.805L21.632 22.5098C21.8143 22.5682 22.0052 22.5972 22.1971 22.5958C22.5067 22.5955 22.8108 22.5159 23.0789 22.365C23.347 22.2141 23.5696 21.9973 23.7244 21.7362L25.7373 18.2979C25.9434 17.9532 26.0199 17.5495 25.9539 17.1559C25.8879 16.7623 25.6833 16.4033 25.3753 16.1403L23.7067 14.6533ZM22.1264 20.8766L19.0983 19.8795C18.389 20.4635 17.5789 20.9204 16.7058 21.229L16.0789 24.3149H11.9119L11.2851 21.2634C10.4188 20.9461 9.61308 20.49 8.90137 19.9139L5.86438 20.8766L3.78085 17.4383L6.1822 15.3753C6.01896 14.4855 6.01896 13.5746 6.1822 12.6848L3.78085 10.5617L5.86438 7.12339L8.89255 8.1205C9.60185 7.53649 10.4119 7.07958 11.2851 6.77096L11.9119 3.68509H16.0789L16.7058 6.73658C17.5721 7.05386 18.3777 7.51 19.0894 8.08612L22.1264 7.12339L24.21 10.5617L21.8086 12.6247C21.9719 13.5145 21.9719 14.4254 21.8086 15.3152L24.21 17.4383L22.1264 20.8766Z" fill="#191A1C"/>
<path d="M13.9999 18.9997C13.011 18.9997 12.0443 18.7065 11.2221 18.1571C10.3999 17.6077 9.75902 16.8268 9.38059 15.9132C9.00217 14.9996 8.90315 13.9943 9.09607 13.0244C9.28899 12.0546 9.76519 11.1637 10.4644 10.4644C11.1637 9.76519 12.0546 9.28899 13.0244 9.09607C13.9943 8.90315 14.9996 9.00217 15.9132 9.38059C16.8268 9.75902 17.6077 10.3999 18.1571 11.2221C18.7065 12.0443 18.9997 13.011 18.9997 13.9999C19.0064 14.6583 18.8817 15.3115 18.6328 15.9211C18.3839 16.5308 18.0158 17.0846 17.5502 17.5502C17.0846 18.0158 16.5308 18.3839 15.9211 18.6328C15.3115 18.8817 14.6583 19.0064 13.9999 18.9997ZM13.9999 10.6666C13.5593 10.6564 13.1213 10.7356 12.7123 10.8994C12.3032 11.0633 11.9317 11.3085 11.6201 11.6201C11.3085 11.9317 11.0633 12.3032 10.8994 12.7123C10.7356 13.1213 10.6564 13.5593 10.6666 13.9999C10.6564 14.4404 10.7356 14.8784 10.8994 15.2875C11.0633 15.6965 11.3085 16.0681 11.6201 16.3797C11.9317 16.6913 12.3032 16.9364 12.7123 17.1003C13.1213 17.2642 13.5593 17.3434 13.9999 17.3331C14.4404 17.3434 14.8784 17.2642 15.2875 17.1003C15.6965 16.9364 16.0681 16.6913 16.3797 16.3797C16.6913 16.0681 16.9364 15.6965 17.1003 15.2875C17.2642 14.8784 17.3434 14.4404 17.3331 13.9999C17.3434 13.5593 17.2642 13.1213 17.1003 12.7123C16.9364 12.3032 16.6913 11.9317 16.3797 11.6201C16.0681 11.3085 15.6965 11.0633 15.2875 10.8994C14.8784 10.7356 14.4404 10.6564 13.9999 10.6666Z" fill="#191A1C"/>
</svg>
