<svg width="225" height="94" viewBox="0 0 225 94" fill="none" xmlns="http://www.w3.org/2000/svg">
<path d="M78.5163 78.076H79.5243V84.532H78.5163V78.076ZM79.2363 80.896H81.1083V81.724H79.2363V80.896ZM76.0563 84.76C76.7843 84.76 77.4123 84.844 77.9403 85.012C78.4763 85.172 78.8883 85.408 79.1763 85.72C79.4723 86.024 79.6203 86.396 79.6203 86.836C79.6203 87.268 79.4723 87.64 79.1763 87.952C78.8883 88.264 78.4763 88.5 77.9403 88.66C77.4123 88.828 76.7843 88.912 76.0563 88.912C75.3203 88.912 74.6843 88.828 74.1483 88.66C73.6123 88.5 73.2003 88.264 72.9123 87.952C72.6243 87.64 72.4803 87.268 72.4803 86.836C72.4803 86.396 72.6243 86.024 72.9123 85.72C73.2003 85.408 73.6123 85.172 74.1483 85.012C74.6843 84.844 75.3203 84.76 76.0563 84.76ZM76.0563 85.564C75.5203 85.564 75.0563 85.616 74.6643 85.72C74.2803 85.816 73.9803 85.96 73.7643 86.152C73.5563 86.336 73.4523 86.564 73.4523 86.836C73.4523 87.1 73.5563 87.328 73.7643 87.52C73.9803 87.712 74.2803 87.86 74.6643 87.964C75.0563 88.06 75.5203 88.108 76.0563 88.108C76.5843 88.108 77.0443 88.06 77.4363 87.964C77.8283 87.86 78.1283 87.712 78.3363 87.52C78.5443 87.328 78.6483 87.1 78.6483 86.836C78.6483 86.564 78.5443 86.336 78.3363 86.152C78.1283 85.96 77.8283 85.816 77.4363 85.72C77.0443 85.616 76.5843 85.564 76.0563 85.564ZM71.5683 82.852H72.4083C73.1683 82.852 73.8283 82.844 74.3883 82.828C74.9483 82.812 75.4643 82.776 75.9363 82.72C76.4083 82.664 76.8883 82.588 77.3763 82.492L77.4843 83.308C76.9883 83.404 76.4963 83.48 76.0083 83.536C75.5283 83.584 75.0003 83.62 74.4243 83.644C73.8483 83.66 73.1763 83.668 72.4083 83.668H71.5683V82.852ZM71.5683 78.904H76.3563V79.72H72.5523V83.392H71.5683V78.904ZM90.0233 78.088H91.0193V86.044H90.0233V78.088ZM84.0473 87.88H91.3553V88.696H84.0473V87.88ZM84.0473 85.312H85.0433V88.264H84.0473V85.312ZM84.9473 78.688H85.7753V79.78C85.7753 80.492 85.6513 81.16 85.4033 81.784C85.1553 82.4 84.8033 82.944 84.3473 83.416C83.8993 83.88 83.3713 84.236 82.7633 84.484L82.2353 83.692C82.7873 83.476 83.2633 83.168 83.6633 82.768C84.0713 82.368 84.3873 81.912 84.6113 81.4C84.8353 80.88 84.9473 80.34 84.9473 79.78V78.688ZM85.1273 78.688H85.9553V79.78C85.9553 80.188 86.0193 80.584 86.1473 80.968C86.2753 81.344 86.4593 81.696 86.6993 82.024C86.9393 82.352 87.2233 82.644 87.5513 82.9C87.8873 83.148 88.2553 83.344 88.6553 83.488L88.1393 84.28C87.5393 84.048 87.0113 83.712 86.5553 83.272C86.1073 82.824 85.7553 82.304 85.4993 81.712C85.2513 81.112 85.1273 80.468 85.1273 79.78V78.688ZM98.0624 78.268C99.2624 78.268 100.198 78.432 100.87 78.76C101.542 79.08 101.878 79.54 101.878 80.14C101.878 80.748 101.542 81.216 100.87 81.544C100.198 81.864 99.2624 82.024 98.0624 82.024C96.8704 82.024 95.9344 81.864 95.2544 81.544C94.5824 81.216 94.2464 80.748 94.2464 80.14C94.2464 79.54 94.5824 79.08 95.2544 78.76C95.9344 78.432 96.8704 78.268 98.0624 78.268ZM98.0624 79.012C97.4784 79.012 96.9784 79.056 96.5624 79.144C96.1464 79.232 95.8264 79.36 95.6024 79.528C95.3864 79.696 95.2784 79.9 95.2784 80.14C95.2784 80.38 95.3864 80.588 95.6024 80.764C95.8264 80.932 96.1464 81.06 96.5624 81.148C96.9784 81.228 97.4784 81.268 98.0624 81.268C98.6544 81.268 99.1584 81.228 99.5744 81.148C99.9904 81.06 100.306 80.932 100.522 80.764C100.746 80.588 100.858 80.38 100.858 80.14C100.858 79.9 100.746 79.696 100.522 79.528C100.306 79.36 99.9904 79.232 99.5744 79.144C99.1584 79.056 98.6544 79.012 98.0624 79.012ZM93.1664 82.756H102.97V83.56H93.1664V82.756ZM94.3544 84.484H101.71V86.932H95.3504V88.24H94.3784V86.2H100.738V85.252H94.3544V84.484ZM94.3784 88.036H102.034V88.816H94.3784V88.036ZM115.008 78.076H116.004V84.22H115.008V78.076ZM115.728 80.728H117.6V81.556H115.728V80.728ZM108.084 82.792H108.924C109.668 82.792 110.32 82.784 110.88 82.768C111.44 82.744 111.956 82.708 112.428 82.66C112.9 82.604 113.376 82.528 113.856 82.432L113.976 83.236C113.472 83.34 112.976 83.42 112.488 83.476C112.008 83.532 111.484 83.568 110.916 83.584C110.348 83.6 109.684 83.608 108.924 83.608H108.084V82.792ZM108.084 78.808H112.848V79.612H109.068V83.26H108.084V78.808ZM109.188 84.796H116.004V88.78H109.188V84.796ZM115.02 85.6H110.16V87.976H115.02V85.6ZM119.94 81.34H127.32V82.144H119.94V81.34ZM118.608 83.596H128.448V84.412H118.608V83.596ZM119.94 78.472H120.924V81.748H119.94V78.472ZM119.868 87.856H127.38V88.672H119.868V87.856ZM119.868 85.504H120.864V88.072H119.868V85.504ZM135.29 80.068H136.058V80.428C136.058 81.004 135.962 81.556 135.77 82.084C135.578 82.604 135.298 83.068 134.93 83.476C134.57 83.876 134.126 84.188 133.598 84.412L133.118 83.668C133.574 83.476 133.962 83.216 134.282 82.888C134.61 82.552 134.858 82.172 135.026 81.748C135.202 81.324 135.29 80.884 135.29 80.428V80.068ZM135.482 80.068H136.238V80.428C136.238 80.852 136.326 81.264 136.502 81.664C136.678 82.064 136.93 82.42 137.258 82.732C137.586 83.044 137.974 83.288 138.422 83.464L137.954 84.22C137.426 84.004 136.978 83.704 136.61 83.32C136.242 82.936 135.962 82.496 135.77 82C135.578 81.504 135.482 80.98 135.482 80.428V80.068ZM133.334 79.504H138.158V80.308H133.334V79.504ZM135.29 78.208H136.238V79.84H135.29V78.208ZM141.23 78.088H142.178V84.736H141.23V78.088ZM139.478 80.98H141.518V81.796H139.478V80.98ZM138.914 78.28H139.862V84.676H138.914V78.28ZM134.906 85.312H142.178V88.936H141.194V86.128H134.906V85.312ZM146.749 79.24H147.565V80.116C147.565 80.788 147.437 81.408 147.181 81.976C146.933 82.544 146.581 83.04 146.125 83.464C145.677 83.888 145.145 84.212 144.529 84.436L144.025 83.644C144.569 83.452 145.045 83.18 145.453 82.828C145.861 82.468 146.177 82.056 146.401 81.592C146.633 81.128 146.749 80.636 146.749 80.116V79.24ZM146.929 79.24H147.745V80.116C147.745 80.588 147.853 81.036 148.069 81.46C148.285 81.884 148.589 82.256 148.981 82.576C149.373 82.896 149.833 83.148 150.361 83.332L149.893 84.112C149.285 83.904 148.761 83.604 148.321 83.212C147.881 82.82 147.537 82.36 147.289 81.832C147.049 81.296 146.929 80.724 146.929 80.116V79.24ZM144.325 78.88H150.133V79.696H144.325V78.88ZM151.501 78.076H152.497V84.616H151.501V78.076ZM152.221 80.836H154.093V81.664H152.221V80.836ZM149.041 84.916C149.777 84.916 150.409 84.996 150.937 85.156C151.473 85.308 151.885 85.532 152.173 85.828C152.461 86.124 152.605 86.484 152.605 86.908C152.605 87.332 152.461 87.692 152.173 87.988C151.885 88.284 151.473 88.512 150.937 88.672C150.409 88.832 149.777 88.912 149.041 88.912C148.305 88.912 147.669 88.832 147.133 88.672C146.597 88.512 146.185 88.284 145.897 87.988C145.609 87.692 145.465 87.332 145.465 86.908C145.465 86.484 145.609 86.124 145.897 85.828C146.185 85.532 146.597 85.308 147.133 85.156C147.669 84.996 148.305 84.916 149.041 84.916ZM149.041 85.708C148.505 85.708 148.041 85.756 147.649 85.852C147.265 85.948 146.969 86.084 146.761 86.26C146.553 86.436 146.449 86.652 146.449 86.908C146.449 87.164 146.553 87.384 146.761 87.568C146.969 87.744 147.265 87.88 147.649 87.976C148.041 88.072 148.505 88.12 149.041 88.12C149.577 88.12 150.037 88.072 150.421 87.976C150.805 87.88 151.101 87.744 151.309 87.568C151.517 87.384 151.621 87.164 151.621 86.908C151.621 86.652 151.517 86.436 151.309 86.26C151.101 86.084 150.805 85.948 150.421 85.852C150.037 85.756 149.577 85.708 149.041 85.708Z" fill="black"/>
<path d="M73.7109 52.7324C72.3828 52.7324 70.8887 52.5859 69.2285 52.293C67.5684 52 65.9082 51.6484 64.248 51.2383C62.6074 50.8086 61.1328 50.4082 59.8242 50.0371C56.7773 51.3848 53.3984 52.0586 49.6875 52.0586C47.4805 52.0586 45.8496 51.8047 44.7949 51.2969C43.7598 50.7891 43.2422 50.2422 43.2422 49.6562C43.2422 48.7383 43.8477 48.0156 45.0586 47.4883C46.2695 46.9414 47.8516 46.668 49.8047 46.668C51.2695 46.668 52.7637 46.8438 54.2871 47.1953C55.8301 47.5469 57.5293 48.0547 59.3848 48.7188C60.8887 47.7422 62.4512 46.375 64.0723 44.6172C65.6934 42.8398 67.5293 40.5547 69.5801 37.7617C65.5371 37.625 62.2852 36.7461 59.8242 35.125C57.3633 33.4844 56.1328 31.3945 56.1328 28.8555C56.1328 27.1758 56.6699 25.5449 57.7441 23.9629C58.8379 22.3613 60.2539 21.043 61.9922 20.0078C63.75 18.9727 65.6348 18.4551 67.6465 18.4551C67.9785 18.4551 68.1641 18.5039 68.2031 18.6016C68.2617 18.6797 68.291 18.748 68.291 18.8066C68.291 18.9043 68.252 18.9824 68.1738 19.041C68.0957 19.0801 67.8223 19.1191 67.3535 19.1582C65.3418 19.3535 63.6621 19.9297 62.3145 20.8867C60.9863 21.8242 59.9902 22.9473 59.3262 24.2559C58.6621 25.5645 58.3301 26.8633 58.3301 28.1523C58.3301 31.1602 59.4043 33.3672 61.5527 34.7734C63.7012 36.1602 66.582 36.873 70.1953 36.9121C70.8203 36.0527 71.4551 35.1445 72.0996 34.1875C72.7637 33.2305 73.457 32.2148 74.1797 31.1406C77.4414 26.2773 80.4883 22.3711 83.3203 19.4219C86.1719 16.4531 88.9453 14.3047 91.6406 12.9766C94.3359 11.6289 97.0801 10.9551 99.873 10.9551C101.318 10.9551 102.49 11.2773 103.389 11.9219C104.287 12.5664 104.736 13.4258 104.736 14.5C104.736 16.1406 104.102 17.918 102.832 19.832C101.582 21.7461 99.8828 23.6504 97.7344 25.5449C95.6055 27.4395 93.2031 29.2168 90.5273 30.877C87.8516 32.5371 85.0879 33.9531 82.2363 35.125C79.3848 36.2773 76.6309 37.0586 73.9746 37.4688C71.8457 40.3203 69.7363 42.7324 67.6465 44.7051C65.5566 46.6582 63.3984 48.2207 61.1719 49.3926C62.8516 49.998 64.7266 50.4668 66.7969 50.7988C68.8867 51.1309 71.2598 51.2969 73.916 51.2969C76.1035 51.2969 77.8613 51.0918 79.1895 50.6816C80.5176 50.252 81.5137 49.793 82.1777 49.3047C82.8613 48.8164 83.3008 48.4746 83.4961 48.2793C83.7891 47.9863 83.9844 47.9473 84.082 48.1621C84.1406 48.2988 84.1113 48.4746 83.9941 48.6895C83.8965 48.8848 83.7695 49.0605 83.6133 49.2168C82.0312 50.6426 80.4102 51.5801 78.75 52.0293C77.0898 52.498 75.4102 52.7324 73.7109 52.7324ZM74.6777 36.5312C77.2559 36.082 79.873 35.2812 82.5293 34.1289C85.1855 32.9766 87.7148 31.5996 90.1172 29.998C92.5391 28.3965 94.6973 26.6875 96.5918 24.8711C98.5059 23.0547 100.01 21.2383 101.104 19.4219C102.217 17.6055 102.773 15.9062 102.773 14.3242C102.773 13.6406 102.48 13.0254 101.895 12.4785C101.309 11.9121 100.576 11.6289 99.6973 11.6289C96.5527 11.6289 93.4473 12.8984 90.3809 15.4375C87.334 17.957 84.375 21.5508 81.5039 26.2188C80.3125 28.1719 79.1504 30.0078 78.0176 31.7266C76.8848 33.4453 75.7715 35.0469 74.6777 36.5312ZM49.2773 51.3555C50.957 51.3555 52.5 51.2285 53.9062 50.9746C55.3125 50.7207 56.6992 50.2324 58.0664 49.5098C56.7578 49.1387 55.3809 48.8262 53.9355 48.5723C52.5098 48.2988 51.2109 48.1621 50.0391 48.1621C46.0547 48.1621 44.0625 48.6504 44.0625 49.627C44.0625 49.9395 44.5215 50.3105 45.4395 50.7402C46.377 51.1504 47.6562 51.3555 49.2773 51.3555ZM92.4023 52.0586C90.7617 52.0586 89.5508 51.6875 88.7695 50.9453C87.9883 50.1836 87.5488 49.2559 87.4512 48.1621C87.3926 46.834 87.666 45.4082 88.2715 43.8848C88.8965 42.3613 89.5703 41.082 90.293 40.0469C91.25 38.6992 92.4121 37.4102 93.7793 36.1797C95.1465 34.9297 96.6406 33.9141 98.2617 33.1328C99.9023 32.332 101.582 31.9316 103.301 31.9316C104.336 31.9316 105.225 32.2051 105.967 32.752C106.729 33.2793 107.148 34.1289 107.227 35.3008C107.324 36.9609 107.002 38.709 106.26 40.5449C105.518 42.3613 104.512 44.0508 103.242 45.6133C103.379 46.1797 103.818 46.4629 104.561 46.4629C105.283 46.4629 106.074 46.1797 106.934 45.6133C107.793 45.0273 108.623 44.3438 109.424 43.5625C110.244 42.7812 110.947 42.0586 111.533 41.3945C112.119 40.7305 112.51 40.3008 112.705 40.1055L113.35 40.6035C112.979 40.9551 112.451 41.502 111.768 42.2441C111.084 42.9668 110.322 43.7188 109.482 44.5C108.662 45.2617 107.812 45.916 106.934 46.4629C106.074 47.0098 105.264 47.2832 104.502 47.2832C103.564 47.2832 102.93 46.9902 102.598 46.4043C101.152 48.0449 99.5215 49.4023 97.7051 50.4766C95.9082 51.5312 94.1406 52.0586 92.4023 52.0586ZM93.1641 51.1797C93.8477 51.1797 94.6387 50.9844 95.5371 50.5938C96.4355 50.2031 97.334 49.6855 98.2324 49.041C99.7363 47.9668 101.094 46.707 102.305 45.2617V45.1445C102.305 43.9336 102.617 42.9766 103.242 42.2734C103.887 41.5508 104.512 41.0918 105.117 40.8965C106.074 38.9043 106.504 37.1172 106.406 35.5352C106.348 34.5781 106.094 33.9141 105.645 33.543C105.215 33.1719 104.736 32.9863 104.209 32.9863C103.076 32.9863 101.68 33.6602 100.02 35.0078C98.3789 36.3359 96.543 38.2598 94.5117 40.7793C93.0664 42.5957 92.0508 44.1289 91.4648 45.3789C90.8984 46.6289 90.6543 47.7129 90.7324 48.6309C90.7324 49.1582 90.9082 49.7148 91.2598 50.3008C91.6309 50.8867 92.2656 51.1797 93.1641 51.1797ZM95.6543 75.0566C94.834 75.0566 94.1504 74.8418 93.6035 74.4121C93.0371 73.9824 92.7539 73.543 92.7539 73.0938C92.7344 72.2734 93.0371 71.3945 93.6621 70.457C94.2676 69.5391 95.3418 68.5137 96.8848 67.3809C98.4277 66.248 100.557 64.9785 103.271 63.5723C105.967 62.166 109.385 60.584 113.525 58.8262C115.127 56.873 116.895 54.6855 118.828 52.2637C120.781 49.8418 122.949 47.1367 125.332 44.1484L125.098 44.0312C122.539 46.9414 120.244 49.0117 118.213 50.2422C116.182 51.4531 114.551 52.0586 113.32 52.0586C112.09 52.0586 111.182 51.7168 110.596 51.0332C110.01 50.3496 109.697 49.4121 109.658 48.2207C109.658 46.9121 109.922 45.5156 110.449 44.0312C110.996 42.5469 111.895 41.0723 113.145 39.6074C114.824 37.5566 116.475 35.9844 118.096 34.8906C119.736 33.7773 121.299 33.0059 122.783 32.5762C124.268 32.1465 125.625 31.9316 126.855 31.9316C128.125 31.9316 129.141 32.1465 129.902 32.5762C130.664 33.0059 131.055 33.5918 131.074 34.334C131.074 34.9004 130.957 35.4766 130.723 36.0625C131.328 35.3203 131.846 34.6758 132.275 34.1289C132.705 33.582 133.105 33.0449 133.477 32.5176C133.691 32.5762 133.965 32.6348 134.297 32.6934C134.648 32.7324 134.99 32.752 135.322 32.752C135.576 32.752 135.938 32.7422 136.406 32.7227C136.875 32.7031 137.236 32.6738 137.49 32.6348L128.057 44.793C126.24 47.1562 124.541 49.3438 122.959 51.3555C121.396 53.3672 119.941 55.2227 118.594 56.9219C122.676 54.832 126.445 52.4395 129.902 49.7441C133.359 47.0293 136.631 43.8164 139.717 40.1055L140.303 40.6035C136.885 44.6855 133.32 48.1328 129.609 50.9453C125.898 53.7383 121.855 56.1797 117.48 58.2695C114.57 61.8633 112.08 64.7637 110.01 66.9707C107.959 69.1973 106.152 70.8867 104.59 72.0391C103.008 73.2109 101.523 74.002 100.137 74.4121C98.7305 74.8418 97.2363 75.0566 95.6543 75.0566ZM113.525 51.1797C114.619 51.1797 116.24 50.4863 118.389 49.0996C120.537 47.6934 123.115 45.2324 126.123 41.7168L128.408 38.9336C128.877 38.25 129.297 37.5176 129.668 36.7363C130.059 35.9551 130.254 35.2422 130.254 34.5977C130.234 33.4258 129.355 32.8398 127.617 32.8398C126.699 32.8398 125.176 33.543 123.047 34.9492C120.918 36.3359 118.643 38.543 116.221 41.5703C114.795 43.3477 113.74 44.9102 113.057 46.2578C112.393 47.5859 112.07 48.7188 112.09 49.6562C112.148 50.6719 112.627 51.1797 113.525 51.1797ZM95.7422 74.2656C96.7383 74.2656 97.7344 74.0605 98.7305 73.6504C99.707 73.2598 100.811 72.5469 102.041 71.5117C103.252 70.4961 104.697 69.0605 106.377 67.2051C108.057 65.3496 110.098 62.9766 112.5 60.0859C107.91 62.0781 104.248 63.8359 101.514 65.3594C98.7598 66.9023 96.7773 68.2891 95.5664 69.5195C94.3359 70.7695 93.7207 71.9609 93.7207 73.0938C93.7207 73.3086 93.9062 73.5527 94.2773 73.8262C94.6484 74.1191 95.1367 74.2656 95.7422 74.2656ZM138.252 52.0586C136.982 52.0586 136.074 51.7461 135.527 51.1211C134.98 50.4961 134.697 49.8223 134.678 49.0996C134.6 47.6543 135.146 46.082 136.318 44.3828C137.471 42.6836 139.131 40.5645 141.299 38.0254C142.061 37.127 142.852 36.1602 143.672 35.125C144.512 34.0898 145.381 33.084 146.279 32.1074C146.943 32.2246 147.725 32.2832 148.623 32.2832C148.896 32.2832 149.277 32.2734 149.766 32.2539C150.254 32.2344 150.576 32.2148 150.732 32.1953C149.072 33.9727 147.412 35.8477 145.752 37.8203C144.092 39.793 142.607 41.5801 141.299 43.1816C140.869 43.709 140.312 44.373 139.629 45.1738C138.945 45.9551 138.34 46.7949 137.812 47.6934C137.305 48.5723 137.061 49.4316 137.08 50.2715C137.08 50.5449 137.178 50.7891 137.373 51.0039C137.568 51.2188 137.939 51.3262 138.486 51.3262C138.877 51.3262 139.482 51.1992 140.303 50.9453C141.143 50.6914 142.031 50.2617 142.969 49.6562C144.277 48.7773 145.762 47.5762 147.422 46.0527C149.082 44.5098 150.889 42.5273 152.842 40.1055C153.271 39.5781 153.623 39.1484 153.896 38.8164C154.17 38.4844 154.424 38.1816 154.658 37.9082C155.342 37.0684 156.084 36.1699 156.885 35.2129C157.686 34.2559 158.555 33.2207 159.492 32.1074C160.117 32.166 160.557 32.2148 160.811 32.2539C161.064 32.2734 161.406 32.2832 161.836 32.2832C162.754 32.2832 163.457 32.2539 163.945 32.1953C162.793 33.4453 161.475 34.959 159.99 36.7363C158.525 38.5137 157.07 40.3008 155.625 42.0977C154.18 43.875 152.91 45.4375 151.816 46.7852C150.879 47.8789 150.283 48.6309 150.029 49.041C149.795 49.4316 149.678 49.8125 149.678 50.1836C149.697 50.418 149.775 50.6523 149.912 50.8867C150.068 51.1211 150.498 51.2383 151.201 51.2383C152.236 51.2383 153.359 50.8965 154.57 50.2129C155.801 49.5293 157.012 48.6797 158.203 47.6641C159.414 46.6289 160.537 45.5742 161.572 44.5C162.627 43.4258 163.516 42.4785 164.238 41.6582C164.961 40.8379 165.43 40.3203 165.645 40.1055L166.23 40.6035C165.996 40.8574 165.498 41.4043 164.736 42.2441C163.994 43.084 163.076 44.0605 161.982 45.1738C160.889 46.2676 159.707 47.3418 158.438 48.3965C157.188 49.4512 155.918 50.3301 154.629 51.0332C153.34 51.7168 152.129 52.0586 150.996 52.0586C150.215 52.0586 149.561 51.8438 149.033 51.4141C148.506 50.9648 148.232 50.3496 148.213 49.5684C148.193 48.8652 148.291 48.1328 148.506 47.3711C148.74 46.6094 149.131 45.75 149.678 44.793C147.236 47.4297 145.049 49.334 143.115 50.5059C142.119 51.1113 141.211 51.5215 140.391 51.7363C139.57 51.9512 138.857 52.0586 138.252 52.0586ZM167.783 52.1758C165.869 52.1758 164.502 51.6777 163.682 50.6816C162.861 49.6855 162.432 48.4648 162.393 47.0195C162.373 45.9648 162.588 44.793 163.037 43.5039C163.486 42.2148 163.955 41.2285 164.443 40.5449C165.889 38.5332 167.451 36.8926 169.131 35.623C170.811 34.3535 172.451 33.4258 174.053 32.8398C175.674 32.2344 177.1 31.9316 178.33 31.9316C179.521 31.9316 180.352 32.127 180.82 32.5176C181.309 32.9082 181.562 33.3574 181.582 33.8652C181.641 34.627 181.23 35.5156 180.352 36.5312C179.492 37.5273 177.979 38.6113 175.811 39.7832C173.643 40.9551 170.615 42.1855 166.729 43.4746C166.045 44.5684 165.586 45.5156 165.352 46.3164C165.117 47.0977 165 47.8008 165 48.4258C165 49.3438 165.303 50.0566 165.908 50.5645C166.533 51.0723 167.266 51.3262 168.105 51.3262C169.941 51.3262 171.66 50.9844 173.262 50.3008C174.883 49.5977 176.357 48.7188 177.686 47.6641C179.033 46.6094 180.215 45.5449 181.23 44.4707C182.246 43.377 183.076 42.4297 183.721 41.6289C184.365 40.8086 184.795 40.3008 185.01 40.1055L185.625 40.6035C185.332 40.8574 184.834 41.4141 184.131 42.2734C183.447 43.1328 182.568 44.1191 181.494 45.2324C180.439 46.3457 179.219 47.4297 177.832 48.4844C176.445 49.5391 174.902 50.418 173.203 51.1211C171.523 51.8242 169.717 52.1758 167.783 52.1758ZM167.402 42.4492C171.191 41.1211 174.18 39.7539 176.367 38.3477C178.555 36.9219 179.648 35.5645 179.648 34.2754C179.648 33.1816 179.141 32.6348 178.125 32.6348C176.816 32.6348 175.4 33.3379 173.877 34.7441C172.354 36.1504 170.576 38.1914 168.545 40.8672C168.115 41.4141 167.734 41.9414 167.402 42.4492Z" fill="black"/>
<path fill-rule="evenodd" clip-rule="evenodd" d="M196 73.375C196 73.7524 195.979 74.1274 195.936 74.5C194.653 63.2179 174.186 54.25 149.125 54.25C134.014 54.25 120.572 57.5107 112 62.5734C111.393 62.2148 110.761 61.8653 110.106 61.5253C118.51 55.7827 132.849 52 149.125 52C175.013 52 196 61.5699 196 73.375Z" fill="black"/>
<path fill-rule="evenodd" clip-rule="evenodd" d="M113.894 61.5253C105.49 55.7827 91.1511 52 74.875 52C48.9867 52 28 61.5699 28 73.375C28 73.7523 28.0214 74.1274 28.0638 74.5C29.3467 63.2179 49.8142 54.25 74.875 54.25C89.9865 54.25 103.428 57.5107 112 62.5734C112.607 62.2148 113.239 61.8653 113.894 61.5253Z" fill="black"/>
</svg>
