<svg width="28" height="28" viewBox="0 0 28 28" fill="none" xmlns="http://www.w3.org/2000/svg">
<path d="M24.5002 24.5L19.4334 19.4332M19.4334 19.4332C20.3001 18.5665 20.9876 17.5375 21.4567 16.4051C21.9257 15.2727 22.1671 14.059 22.1671 12.8333C22.1671 11.6076 21.9257 10.3939 21.4567 9.26153C20.9876 8.12912 20.3001 7.1002 19.4334 6.2335C18.5667 5.36679 17.5378 4.67929 16.4054 4.21023C15.273 3.74118 14.0593 3.49976 12.8336 3.49976C11.6079 3.49976 10.3942 3.74118 9.26177 4.21023C8.12937 4.67929 7.10044 5.36679 6.23374 6.2335C4.48336 7.98388 3.5 10.3579 3.5 12.8333C3.5 15.3087 4.48336 17.6828 6.23374 19.4332C7.98412 21.1835 10.3582 22.1669 12.8336 22.1669C15.309 22.1669 17.683 21.1835 19.4334 19.4332Z" stroke="#191A1C" stroke-width="1.3" stroke-linecap="round" stroke-linejoin="round"/>
</svg>
